<?xml version="1.0" encoding="UTF-8"?>
<svg id="Layer_2" data-name="Layer 2" xmlns="http://www.w3.org/2000/svg" viewBox="0 0 516.62 516.62">
  <defs>
    <style>
      .cls-1 {
        fill: #010101;
        stroke: #000;
        stroke-miterlimit: 10;
        stroke-width: 3px;
      }
    </style>
  </defs>
  <g id="Layer_1-2" data-name="Layer 1">
    <g>
      <path class="cls-1" d="m120.98,204.97c-.33,0-.67-.03-1.02-.08-.07-.01-.68-.11-.74-.12-3.78-.68-6.29-4.28-5.61-8.06.68-3.78,4.3-6.31,8.06-5.61,3.74.67,6.51,4.26,5.9,8-.56,3.4-3.28,5.86-6.59,5.86h0Zm27.45-1.34c-3.12,0-5.95-2.12-6.74-5.28-.92-3.72,1.36-7.48,5.08-8.4,3.7-.91,7.7,1.25,8.65,4.93.96,3.68-.96,7.37-4.63,8.37-.06.02-.64.17-.7.18-.56.13-1.12.2-1.67.2Zm-53.8-8.69c-1.19,0-2.39-.33-3.5-1.03-.02-.02-.28-.18-.31-.19-3.2-2.08-4.24-6.42-2.18-9.63,2.06-3.22,6.21-4.24,9.43-2.2,3.24,2.04,4.44,6.48,2.39,9.72-1.34,2.13-3.56,3.34-5.84,3.34h0Zm78.93-3.98c-2.01,0-3.99-.83-5.35-2.48-2.43-2.95-2.12-7.22.82-9.66l.43-.35c2.95-2.44,7.32-2.04,9.77.91,2.45,2.95,2.04,7.32-.91,9.78-.02.02-.26.21-.28.23-1.31,1.05-2.91,1.58-4.5,1.58h0Zm-98.56-15.75c-2.29,0-4.53-1.13-5.86-3.21l-.24-.37c-2.11-3.2-1.23-7.51,1.97-9.62,3.19-2.11,7.5-1.23,9.62,1.97.02.03.34.53.36.57,2.07,3.23,1.12,7.52-2.12,9.58-1.15.74-2.45,1.09-3.73,1.09h0Zm116.27-5.74c-1.04,0-2.1-.23-3.1-.73-3.43-1.72-4.82-5.89-3.1-9.31.01-.03.28-.56.29-.58,1.75-3.4,5.95-4.73,9.35-2.98,3.4,1.75,4.74,5.94,2.98,9.36l-.21.41c-1.22,2.43-3.67,3.84-6.21,3.84Zm-126.5-20.67c-3.3,0-6.16-2.19-6.71-5.57,0-.02-.07-.47-.08-.5-.57-3.79,2.03-7.38,5.82-7.96,3.79-.58,7.31,1.97,7.89,5.76.57,3.78-1.97,7.58-5.75,8.17-.4.07-.79.09-1.18.09Zm133.95-6.34c-.13,0-.27,0-.41-.01-3.83-.23-6.75-3.51-6.52-7.33.23-3.82,3.47-6.97,7.35-6.8,3.83.23,6.76,3.23,6.54,7.06l-.03.56c-.22,3.69-3.28,6.54-6.92,6.54Zm-132.44-21.65c-.56,0-1.13-.07-1.68-.22-3.68-.99-5.94-4.49-4.99-8.17.01-.05.17-.63.18-.68,1.03-3.69,4.86-5.85,8.56-4.8,3.69,1.04,5.84,4.87,4.8,8.56-.87,3.1-3.78,5.31-6.87,5.31h0Zm128.29-6.05c-2.78,0-5.41-1.69-6.47-4.44-.01-.02-.22-.56-.22-.58-1.34-3.59.47-7.58,4.06-8.93,3.59-1.35,7.59.47,8.93,4.06l.17.44c1.39,3.58-.39,7.59-3.96,8.98-.82.32-1.67.47-2.5.47h0Zm-115.58-18.64c-1.56,0-3.13-.52-4.42-1.59-2.95-2.44-3.37-6.82-.93-9.77l.27-.33c2.39-3,6.75-3.5,9.76-1.1,3,2.39,3.49,6.75,1.1,9.75-.03.04-.41.5-.43.53-1.37,1.66-3.35,2.52-5.35,2.52h0Zm100.5-4.96c-1.8,0-3.6-.69-4.96-2.08-.03-.03-.59-.59-.62-.62-2.63-2.79-2.51-7.18.28-9.82,2.79-2.63,7.17-2.5,9.81.28h.01c.12.12.32.33.43.44,2.68,2.74,2.64,7.14-.11,9.82-1.35,1.32-3.1,1.98-4.86,1.98h.01Zm-78.77-12.72c-2.5,0-4.91-1.35-6.15-3.71-1.78-3.39-.47-7.59,2.92-9.37l.29-.14c3.39-1.73,7.68-.48,9.44,2.9,1.77,3.38.61,7.47-2.75,9.26-.01.01-.52.27-.54.28-1.03.54-2.13.8-3.22.8h0Zm55.23-2.82c-.81,0-1.63-.14-2.44-.44-.01,0-.54-.2-.55-.21-3.59-1.37-5.38-5.37-4.01-8.96,1.37-3.58,5.38-5.37,8.96-4.01l.48.18c3.59,1.35,5.41,5.35,4.06,8.93-1.04,2.79-3.69,4.51-6.5,4.51Zm-27.65-4.51c-3.66,0-6.98-2.83-7.2-6.52-.23-3.83,2.42-7.09,6.25-7.32l.56-.03c3.83-.18,7.11,2.7,7.33,6.52.23,3.83-2.69,7.11-6.52,7.33-.14,0-.28.01-.42.01Z"/>
      <path class="cls-1" d="m141.86,179.01c-3.07,0-5.88-2.05-6.71-5.16-.98-3.71,1.23-7.51,4.94-8.48l.56-.14c3.7-.98,7.51,1.23,8.48,4.93.98,3.71-1.23,7.51-4.94,8.48l-.56.14c-.59.16-1.19.23-1.78.23h0Zm-28.11-2.55c-.93,0-1.89-.21-2.82-.64l-.56-.26c-3.46-1.65-4.93-5.79-3.28-9.25,1.64-3.46,5.78-4.92,9.25-3.29,3.47,1.63,5.21,5.87,3.58,9.34-1.19,2.55-3.6,4.09-6.17,4.09h0Zm51.76-13.61c-1.42,0-2.86-.43-4.09-1.34-3.09-2.27-3.76-6.61-1.5-9.7,2.18-3.16,6.61-4.09,9.76-1.93,3.15,2.18,4.06,6.35,1.88,9.5l-.44.62c-1.36,1.86-3.47,2.84-5.61,2.84h0Zm-72.23-6.71c-2.52,0-4.88-1.36-6.03-3.82l-.28-.6c-1.58-3.49-.03-7.6,3.46-9.18,3.49-1.59,7.61-.03,9.19,3.46,1.63,3.47.23,7.82-3.24,9.44-1.01.48-2.07.71-3.1.71h0Zm79.97-20.86c-3.56,0-6.6-2.73-6.91-6.35l-.05-.57c-.33-3.82,2.5-7.18,6.32-7.51,3.88-.42,7.18,2.5,7.51,6.32l.05.57c.33,3.82-2.5,7.18-6.32,7.51-.21.02-.41.03-.6.03h0Zm-82.36-7.5c-.59,0-1.19-.08-1.78-.23-3.7-.98-5.91-4.78-4.94-8.48l.14-.56c.98-3.7,4.79-5.9,8.48-4.93,3.7.98,5.91,4.78,4.94,8.48l-.14.56c-.82,3.11-3.63,5.16-6.71,5.16h0Zm70.6-18.62c-1.78,0-3.55-.68-4.91-2.03l-.41-.41c-2.71-2.71-2.84-7.23-.13-9.94,2.7-2.7,6.97-2.84,9.69-.12,0,0,.11.11.12.12l.54.55c2.71,2.71,2.71,7.1,0,9.82-1.35,1.35-3.13,2.03-4.91,2.03h0Zm-54.15-5.15c-2.16,0-4.29-.96-5.62-2.79-2.25-3.11-1.73-7.32,1.38-9.58l.6-.42c3.15-2.17,7.48-1.38,9.65,1.77,2.18,3.15,1.38,7.48-1.77,9.66-1.26.91-2.76,1.36-4.24,1.36h0Zm28.02-7.36c-.19,0-.39,0-.59-.03l-.58-.05c-3.82-.33-6.65-3.69-6.32-7.51.33-3.82,3.62-6.74,7.51-6.32l.57.05c3.82.32,6.65,3.68,6.33,7.5-.31,3.62-3.34,6.36-6.91,6.36h0Z"/>
      <path class="cls-1" d="m143.8,151.46c-1.83,0-3.66-.72-5.02-2.15-2.65-2.78-2.54-7.17.23-9.82,2.75-2.63,7.3-2.74,9.96-.02,2.66,2.72,2.83,6.87.14,9.57l-.03.03s-.44.43-.47.47c-1.34,1.28-3.07,1.92-4.79,1.92h0Zm-25.29-.38c-1.67,0-3.31-.63-4.62-1.94l-.07-.07c-.06-.06-.44-.45-.5-.52-2.61-2.81-2.44-7.2.36-9.81,2.82-2.61,7.21-2.44,9.81.36,2.57,2.77,2.65,7.29-.08,9.92-1.39,1.34-3.16,2.04-4.91,2.04h0Zm25.74-25.1c-1.73,0-3.45-.68-4.76-2.08,0,0-.39-.4-.39-.41-2.59-2.76-2.55-7.16.17-9.8,2.73-2.64,7-2.66,9.67.02.06.06.23.24.28.29,2.62,2.79,2.67,7.38-.12,10.01-1.39,1.3-3.13,1.97-4.85,1.97Zm-25.51-.49c-1.83,0-3.64-.68-4.95-2.07-2.58-2.73-2.72-6.82-.06-9.48h0c.09-.1.57-.57.67-.66,2.86-2.55,7.25-2.32,9.8.55,2.55,2.85,2.32,7.25-.54,9.8-1.38,1.23-3.15,1.86-4.92,1.86h0Z"/>
      <path class="cls-1" d="m503.23,440.95l-205.58-195.75c-5.74-5.54-14.17-6.6-21.08-3.26l-21.55-21.55,5.59-5.59c2.71-2.71,2.71-7.1,0-9.82l-18.97-18.97c15.92-32.03,17-69.82,2.91-102.81l16.08-30.74c1.4-2.69.91-5.97-1.24-8.12L218.57,3.53c-2.14-2.14-5.42-2.64-8.12-1.25l-30.84,16.1C133.76-1.13,79.91,9.11,44.51,44.5,9.1,79.91-1.13,133.78,18.39,179.61l-16.1,30.84c-1.4,2.68-.9,5.97,1.24,8.12l40.81,40.81c1.33,1.33,3.11,2.03,4.91,2.03,1.09,0,2.2-.26,3.21-.79l30.73-16.07c15.4,6.58,31.83,9.89,48.25,9.89,18.77,0,37.48-4.33,54.55-12.82l18.98,18.98c1.35,1.35,3.13,2.03,4.91,2.03s3.55-.68,4.91-2.03l5.59-5.59,21.52,21.53c-3.3,6.85-2.27,15.34,3.26,21.09l195.79,205.62c7.09,7.43,16.85,11.76,26.76,11.88h.42c8.97,0,17.28-3.38,23.44-9.54l13.99-14c6.26-6.26,9.65-14.74,9.54-23.87-.12-9.91-4.45-19.67-11.89-26.76h0ZM212.35,16.95l33.6,33.6-9.17,17.53c-5.1-8.47-11.21-16.4-18.38-23.58-7.18-7.18-15.11-13.27-23.61-18.38,0,0,17.56-9.17,17.56-9.17ZM50.54,245.95l-33.6-33.6,9.17-17.57c5.11,8.51,11.22,16.45,18.38,23.61,7.18,7.18,15.11,13.29,23.58,18.38l-17.53,9.17h0Zm35.23-15.4c-11.59-5.29-22.17-12.68-31.46-21.97-9.26-9.26-16.65-19.86-21.98-31.53-19-41.27-10.17-90.58,21.98-122.73,20.85-20.85,48.92-31.89,77.35-31.89,15.4,0,30.9,3.24,45.41,9.92,11.65,5.32,22.25,12.72,31.51,21.97,9.29,9.29,16.68,19.87,21.98,31.48,14.46,31.34,13.16,68.04-3.5,98.18,0,.01-.01.03-.02.04-4.83,8.88-11.04,17.14-18.46,24.56-7.42,7.42-15.69,13.63-24.6,18.49-30.14,16.65-66.84,17.96-98.2,3.48Zm112.75,3.97c7.07-4.6,13.74-9.99,19.87-16.12,6.13-6.13,11.52-12.79,16.12-19.87l11.35,11.35-5.58,5.58h0s-24.82,24.82-24.82,24.82c0,0,0,.01-.01.02l-5.57,5.57-11.35-11.35h0Zm46.67-4.33l20.76,20.76-14.1,14.13-.89.89-20.78-20.78,15-15h0Zm250.56,251.57l-13.99,14c-3.59,3.59-8.63,5.58-13.89,5.47-6.2-.07-12.35-2.84-16.88-7.57l-195.81-205.64c-1.82-1.89-1.8-4.91-.18-6.52l.66-.66c.07-.06.16-.08.22-.14l24.82-24.83s.01-.02.02-.03l.2-.19.37-.42c.92-.93,2.14-1.39,3.36-1.39s2.44.46,3.4,1.38l205.6,195.78c4.74,4.53,7.51,10.68,7.58,16.89.06,5.36-1.88,10.29-5.47,13.89Z"/>
      <path class="cls-1" d="m229.4,131.46c0-26.16-10.19-50.76-28.69-69.26-18.5-18.5-43.1-28.69-69.26-28.69-26.16,0-50.76,10.19-69.26,28.69-18.5,18.5-28.69,43.1-28.69,69.26,0,26.16,10.19,50.77,28.69,69.26,18.5,18.5,43.1,28.69,69.26,28.69,26.16,0,50.76-10.19,69.26-28.69,18.5-18.5,28.69-43.1,28.69-69.26Zm-97.95,84.07c-22.45,0-43.57-8.75-59.45-24.63-15.87-15.87-24.63-36.99-24.63-59.45s8.75-43.57,24.63-59.45c15.88-15.87,36.99-24.63,59.45-24.63,22.45,0,43.57,8.75,59.45,24.63,15.87,15.88,24.63,36.99,24.63,59.45,0,22.45-8.75,43.57-24.63,59.45-15.88,15.87-36.99,24.63-59.45,24.63Z"/>
    </g>
  </g>
</svg>