<?xml version="1.0" encoding="UTF-8"?>
<svg id="Layer_2" data-name="Layer 2" xmlns="http://www.w3.org/2000/svg" viewBox="0 0 286.1 513.05">
  <defs>
    <style>
      .cls-1 {
        fill: #010101;
        stroke-width: 0px;
      }
    </style>
  </defs>
  <g id="Layer_1-2" data-name="Layer 1">
    <path class="cls-1" d="m286.04,202.22c-2.44-8.31-7.54-15.74-14.4-20.94-6.92-5.25-15.49-8.16-24.15-8.2h-103.26v-24.94h77.42c3.59.04,6.93-1.76,8.9-4.81,1.97-3.05,2.26-6.85.79-10.18-12.61-28.21-46.26-48.59-85.74-51.93l-1.37-.12v-21.53l.93-.38c8.76-3.57,15.47-11.19,17.96-20.38,2.49-9.19.55-19.19-5.18-26.74-5.74-7.57-14.8-12.09-24.24-12.09s-18.5,4.52-24.24,12.09c-5.73,7.55-7.67,17.55-5.18,26.74,2.48,9.18,9.2,16.79,17.96,20.38l.93.38v21.53l-1.37.12c-39.26,3.35-72.92,23.74-85.75,51.94-1.48,3.3-1.18,7.1.8,10.16,1.95,3.01,5.25,4.81,8.84,4.81h77.49v25.07H10.6s-.06,0-.09,0c-4.26,0-8.05,2.56-9.69,6.54-1.65,4.01-.74,8.57,2.31,11.61l28.95,29.16v244.26c.15,13.03,5.33,25.23,14.59,34.35,9.26,9.14,21.53,14.06,34.42,13.94h104.21c.16,0,.33,0,.49,0,12.77,0,24.8-4.94,33.94-13.94,9.26-9.12,14.44-21.32,14.59-34.36V194.43h12.56c8.93-.54,17.04,5.18,19.59,13.91l.06.21v.21l-.06,128.63c0,2.62,1.02,5.08,2.87,6.94,1.85,1.85,4.32,2.87,6.94,2.87s5.08-1.02,6.94-2.87c1.85-1.85,2.87-4.32,2.87-6.94l-.06-135.17ZM64.76,126.92l3.23-2.66c18.5-15.22,41.84-23.22,65.73-22.52,23.61-.58,46.78,7.43,65.16,22.52l3.24,2.66H64.76Zm148.89,339.38h-.11c-1.07,14.32-13.01,25.55-27.38,25.56-.18,0-.37,0-.55,0h-104.51c-15.02.24-27.61-11.85-27.97-27.04v-248.65c0-4.8-2.76-7.43-7.33-11.77-2.17-2.06-4.62-4.39-7.33-7.46l-2.2-2.49h86.89v198.8h-33.62c-5.81,0-10.53,4.76-10.53,10.62s4.72,10.62,10.53,10.62h87.35c5.81,0,10.53-4.76,10.53-10.62s-4.72-10.62-10.53-10.62h-32.65v-198.8h69.54l-.13,271.87Z"/>
  </g>
</svg>