<?xml version="1.0" encoding="UTF-8"?>
<svg id="Layer_2" data-name="Layer 2" xmlns="http://www.w3.org/2000/svg" viewBox="0 0 335.58 512.06">
  <defs>
    <style>
      .cls-1 {
        fill: #010101;
        stroke-width: 0px;
      }
    </style>
  </defs>
  <g id="Layer_1-2" data-name="Layer 1">
    <path class="cls-1" d="m42.53,504.81c9.95,4.74,21.04,7.25,32.06,7.25h186.43c41.1,0,74.54-33.43,74.55-74.53,0-10.43-2.24-20.94-6.5-30.47h-.07l-.54-1.16-53.87-115.68,1.85-.83c11.07-4.97,16.03-18.02,11.06-29.09-.08-.17-.16-.34-.24-.51-5.55-11.44-9.58-23.58-11.97-36.07l-.47-2.47,2.51.09c2.59.1,5.08-.83,6.98-2.6,1.91-1.77,3.01-4.18,3.1-6.78.1-2.6-.83-5.08-2.6-6.98-1.77-1.91-4.18-3.01-6.78-3.1h-4.66s.08-2.08.08-2.08c.83-21.41,7.21-42.38,18.43-60.63,3.01-5.08,3.87-11.07,2.4-16.82-1.47-5.76-5.1-10.59-10.21-13.62l-.09-.05-1.62-1.03,49.59-85.95c1.92-3.35,2.43-7.26,1.42-11-1.01-3.74-3.42-6.86-6.78-8.78-2.21-1.27-4.76-1.95-7.28-1.92H15.46C11.59,0,7.96,1.5,5.22,4.23,2.48,6.96.96,10.6.96,14.47c0,2.51.65,4.99,1.88,7.17l48.42,86.07-1.68,1c-10.35,6.15-13.93,19.67-7.96,30.13,7.16,12.22,12.75,25.34,16.61,38.99l.72,2.54h-2.64c-5.36,0-9.73,4.36-9.73,9.73s4.36,9.73,9.73,9.73h.2s5.69.57,5.69.57l.1,1.71c1.16,19.89-3.14,39.72-12.43,57.35-5.53,10.73-1.28,23.98,9.47,29.51.28.15.57.29.86.42l1.84.85L7.29,405.45c-8.56,17.98-9.61,38.21-2.96,56.98,6.66,18.77,20.22,33.82,38.2,42.38ZM23.61,19.46h287.14l-49.61,86.1H72.81L23.61,19.46Zm35.05,109.78c-.54-.87-.55-1.95-.03-2.83.5-.9,1.47-1.45,2.51-1.39h213.22l.59.9c.61.93.61,2.13,0,3.06-12.5,20.52-19.75,44.12-20.94,68.2l-.1,2.09-174.61-16.84-.31-1.42c-4.03-18.24-10.87-35.66-20.31-51.77Zm210.73,141.66l-.3.45-.48.24c-.38.19-.79.28-1.2.28-.21,0-.42-.02-.62-.07h-30.36l-7.88-55.41,26.47,2.96.22,1.54c2.3,16.36,7.09,32.21,14.25,47.1.52.91.49,2.03-.09,2.91Zm-52.36,1.21h-17.14l8.46-58.38,8.68,58.38Zm-135.29-67.62l-.07-2.28,107.08,10.59-8.35,59.3h-110.66c-.46,0-2.03-.18-2.71-2.55l-.22-.77.37-.71c10.2-19.56,15.24-41.55,14.55-63.6Zm-56.96,209.41l3.61-7.63,9.29-19.61h0l1.34-2.86,43.86-92.23h94.5l-5.02,35.12c-.37,2.58.28,5.14,1.83,7.22,1.53,2.04,3.75,3.39,6.26,3.79h1.58c4.79-.02,8.92-3.61,9.59-8.37l5.73-37.77h22.38l3.61,25.17c.67,4.76,4.8,8.35,9.6,8.37h1.49c5.23-.83,8.85-5.71,8.11-10.97l-.03-.18-3.2-22.55h14.21l44.56,95.25h-.04l12.78,27.5c8.1,17.17,6.83,36.98-3.41,52.98-10.12,15.96-27.43,25.48-46.32,25.48H74.56c-14.7,0-28.52-5.72-38.92-16.11-10.41-10.4-16.15-24.23-16.17-38.94,0-8.13,1.83-16.31,5.32-23.65Z"/>
    <circle class="cls-1" cx="209.1" cy="204.42" r="31.7"/>
  </g>
</svg>